<svg width="696" height="696" viewBox="0 0 696 696" fill="none" xmlns="http://www.w3.org/2000/svg">
<path d="M696 342.437L684.874 344.486C511.797 376.371 376.371 511.797 344.486 684.874L342.437 696L382.729 477.281C391.586 429.204 429.204 391.586 477.281 382.729L696 342.437ZM207.593 382.729C255.67 391.586 293.288 429.204 302.145 477.281L340.335 684.592C308.355 511.649 172.983 376.354 0 344.486L207.593 382.729ZM302.145 207.593C293.288 255.67 255.67 293.288 207.593 302.145L0.28125 340.335C173.131 308.373 308.373 173.131 340.335 0.28125L302.145 207.593ZM344.486 0C376.354 172.983 511.649 308.355 684.592 340.335L477.281 302.145C429.204 293.288 391.586 255.67 382.729 207.593L344.486 0Z" fill="#2C2C2C"/>
</svg>
