<svg width="2240" height="381" viewBox="0 0 2240 381" fill="none" xmlns="http://www.w3.org/2000/svg">
<path d="M2159.97 0C2167.23 39.4067 2198.06 70.2404 2237.47 77.5L2240 77.9668L2237.47 78.4336C2198.06 85.6932 2167.23 116.527 2159.97 155.934L2159.5 158.467L2159.03 155.934C2151.77 116.527 2120.94 85.6932 2081.53 78.4336L2128.8 87.1406C2139.74 89.1572 2148.31 97.7227 2150.33 108.669L2159.5 158.467L2168.67 108.669C2170.69 97.7227 2179.26 89.1572 2190.2 87.1406L2240 77.9668L2190.2 68.793C2179.26 66.7764 2170.69 58.2109 2168.67 47.2646L2159.97 0ZM2150.33 47.2646C2148.31 58.2109 2139.74 66.7764 2128.8 68.793L2079 77.9668L2081.53 77.5C2120.94 70.2404 2151.77 39.4067 2159.03 0L2150.33 47.2646Z" fill="#F9F8F6"/>
<path d="M2084.34 373.467L2040.74 272.667H1943.14L1897.94 373.467H1889.14L2003.14 117.467H2005.14L2115.14 373.467H2084.34ZM1945.94 265.867H2037.94L1992.74 160.667L1945.94 265.867Z" fill="#F9F8F6"/>
<path d="M1777.62 117.467L1807.62 373.467H1778.82L1755.22 171.867L1652.42 366.667H1650.82L1551.22 175.067L1524.42 373.467H1518.02L1552.42 117.467H1553.62L1664.42 330.267L1776.82 117.467H1777.62Z" fill="#F9F8F6"/>
<path d="M1435.15 128.667H1336.35V239.067H1424.35V245.467H1336.35V367.067H1435.15V373.467H1307.95V122.267H1309.15H1435.15V128.667Z" fill="#F9F8F6"/>
<path d="M1223.77 373.467H1187.37L1094.57 256.667H1076.17V373.467H1047.77V122.267C1047.77 122.267 1104.17 122.267 1123.77 122.267C1144.17 122.267 1204.17 129.867 1204.17 185.067C1204.17 236.667 1159.37 251.067 1129.77 255.067L1223.77 373.467ZM1076.17 128.667V250.267H1098.17C1144.97 250.267 1173.77 234.267 1173.77 189.467C1173.77 145.467 1149.37 128.667 1108.57 128.667H1076.17Z" fill="#F9F8F6"/>
<path d="M960.028 350.667V359.467C960.028 359.467 933.228 380.667 883.228 380.667C832.828 380.667 749.228 355.467 749.228 248.667C749.228 155.867 814.828 117.467 886.828 117.467C932.428 117.467 960.028 133.867 960.028 133.867V142.667C960.028 142.667 934.028 123.867 886.828 123.867C848.028 123.867 778.428 145.067 778.428 248.667C778.428 353.867 842.028 373.867 886.828 373.867C933.228 373.867 960.028 350.667 960.028 350.667Z" fill="#F9F8F6"/>
<path d="M485.731 373.467L442.131 272.667H344.531L299.331 373.467H290.531L404.531 117.467H406.531L516.531 373.467H485.731ZM347.331 265.867H439.331L394.131 160.667L347.331 265.867Z" fill="#F9F8F6"/>
<path d="M204 122.267V380.667H202.8L6.4 163.067V373.467H0V117.467H0.799999L197.6 335.067V122.267H204Z" fill="#F9F8F6"/>
</svg>
