<svg width="708" height="697" viewBox="0 0 708 697" fill="none" xmlns="http://www.w3.org/2000/svg">
<path d="M696.011 344.676C522.993 376.665 387.638 512.094 355.757 685.151L353.706 696.282L351.655 685.151C319.774 512.094 184.419 376.665 11.4014 344.676L218.807 382.885C266.903 391.745 304.537 429.378 313.397 477.475L353.706 696.282L394.015 477.475C402.875 429.378 440.509 391.745 488.605 382.885L696.011 344.676ZM313.397 207.677C304.537 255.773 266.903 293.406 218.807 302.267L0 342.576L11.1309 340.525C184.278 308.628 319.758 173.147 351.655 0L313.397 207.677ZM355.757 0C387.654 173.147 523.134 308.628 696.281 340.525L707.412 342.576L488.605 302.267C440.509 293.406 402.875 255.773 394.015 207.677L355.757 0Z" fill="#F9F8F6"/>
</svg>
